/* XPM */
static char *littleant2[] = {
/* columns rows colors chars-per-pixel */
"50 50 239 2 ",
"   c #010101",
".  c #0B0405",
"X  c #07070A",
"o  c #090709",
"O  c #05080E",
"+  c #0C0B0B",
"@  c #120606",
"#  c #130708",
"$  c #160808",
"%  c #1C0A0A",
"&  c #12100F",
"*  c #0E0E11",
"=  c #140F11",
"-  c #141415",
";  c #1B1411",
":  c #1C1B16",
">  c #141418",
",  c #1B1B1C",
"<  c #240D0D",
"1  c #2B0F0F",
"2  c #2B0F10",
"3  c #201414",
"4  c #2E1111",
"5  c #201C16",
"6  c #201A1C",
"7  c #2E1A1A",
"8  c #341313",
"9  c #3B1415",
"0  c #361817",
"q  c #3B1718",
"w  c #3D1B1B",
"e  c #25231D",
"r  c #2A251D",
"t  c #30251A",
"y  c #37291E",
"u  c #131525",
"i  c #1C1D23",
"p  c #141729",
"a  c #1B1E31",
"s  c #1E2232",
"d  c #1B213C",
"f  c #232323",
"g  c #2B2522",
"h  c #2B2823",
"j  c #26262E",
"k  c #27282F",
"l  c #3B2225",
"z  c #31262A",
"x  c #322E2B",
"c  c #3D3325",
"v  c #3B322E",
"b  c #272830",
"n  c #2B2C34",
"m  c #2E2F38",
"M  c #2F313A",
"N  c #33353E",
"B  c #411717",
"V  c #4B1616",
"C  c #421718",
"Z  c #431819",
"A  c #4A1A1A",
"S  c #551E1E",
"D  c #591F1F",
"F  c #53201F",
"G  c #5A201F",
"H  c #591F20",
"J  c #422121",
"K  c #4A2424",
"L  c #442B2B",
"P  c #5C2121",
"I  c #572826",
"U  c #453E2F",
"Y  c #433B33",
"T  c #642423",
"R  c #6A2625",
"E  c #6F2827",
"W  c #672C2B",
"Q  c #6D2828",
"!  c #712727",
"~  c #742929",
"^  c #7C2D2C",
"/  c #782F31",
"(  c #683336",
")  c #62363C",
"_  c #7E3333",
"`  c #4A4434",
"'  c #49443B",
"]  c #5B4631",
"[  c #5F4C36",
"{  c #544E3F",
"}  c #5A533F",
"|  c #604D37",
" . c #6B523A",
".. c #72573E",
"X. c #343641",
"o. c #373843",
"O. c #393B45",
"+. c #3B3D49",
"@. c #2B3A7C",
"#. c #403F41",
"$. c #5A3940",
"%. c #6E3D44",
"&. c #673F48",
"*. c #3F414C",
"=. c #414142",
"-. c #41424D",
";. c #4B4A4D",
":. c #50444F",
">. c #5B5445",
",. c #5F5748",
"<. c #434551",
"1. c #484753",
"2. c #474957",
"3. c #4B4D5A",
"4. c #4E515F",
"5. c #6D4147",
"6. c #774440",
"7. c #6C5642",
"8. c #655C46",
"9. c #605948",
"0. c #765B40",
"q. c #7B6146",
"w. c #73644C",
"e. c #7E6549",
"r. c #7E684C",
"t. c #776E54",
"y. c #535665",
"u. c #565968",
"i. c #595B6C",
"p. c #434F7E",
"a. c #5C5F70",
"s. c #5E6173",
"d. c #7D6660",
"f. c #786C63",
"g. c #616476",
"h. c #636779",
"j. c #666A7C",
"k. c #832E2E",
"l. c #892C2C",
"z. c #85302F",
"x. c #873333",
"c. c #8C3232",
"v. c #943534",
"b. c #993636",
"n. c #9E3837",
"m. c #9F3938",
"M. c #A93837",
"N. c #A43B3A",
"B. c #AB3D3C",
"V. c #B2403F",
"C. c #8A454B",
"Z. c #93474C",
"A. c #9B494D",
"S. c #825450",
"D. c #A94B4E",
"F. c #B34140",
"G. c #BC4343",
"H. c #BB4548",
"J. c #81694D",
"K. c #966159",
"L. c #857153",
"P. c #83755C",
"I. c #8B7558",
"U. c #8D795B",
"Y. c #917E5F",
"T. c #84756A",
"R. c #957F62",
"E. c #9F7771",
"W. c #C44645",
"Q. c #C84746",
"!. c #C74847",
"~. c #CA4847",
"^. c #C34948",
"/. c #CD4949",
"(. c #D34A49",
"). c #DB4E4D",
"_. c #C45052",
"`. c #DB5455",
"'. c #E35453",
"]. c #EC5554",
"[. c #F35655",
"{. c #F55857",
"}. c #F85857",
"|. c #F05758",
" X c #F75858",
".X c #FE5A59",
"XX c #958665",
"oX c #978867",
"OX c #978B6E",
"+X c #9B8D6C",
"@X c #9B906E",
"#X c #978D78",
"$X c #9F9270",
"%X c #A39372",
"&X c #AA9676",
"*X c #A79977",
"=X c #A1957A",
"-X c #AD9E7D",
";X c #ADA17F",
":X c #314289",
">X c #4E5B99",
",X c #6D7085",
"<X c #6F7489",
"1X c #71758A",
"2X c #787D93",
"3X c #6073C2",
"4X c #5773F0",
"5X c #5A76F5",
"6X c #5E7BFD",
"7X c #7D8197",
"8X c #7F849B",
"9X c #81859C",
"0X c #A79A90",
"qX c #ADA187",
"wX c #B5A685",
"eX c #B8A686",
"rX c #B9A887",
"tX c #B6A98A",
"yX c #BCAF8E",
"uX c #BFB28F",
"iX c #B9A798",
"pX c #BFB292",
"aX c #8387A0",
"sX c #868BA4",
"dX c #888BA6",
"fX c #8E93AD",
"gX c #9AA0BC",
"hX c #C3B593",
"jX c #CCBD9B",
"kX c #CAB5A5",
"lX c #CEC09D",
"zX c #D1C29F",
"xX c #9DA3C0",
"cX c #A3A9C6",
"vX c #A6ACCC",
"bX c #A9AFCD",
"nX c #AEB4D4",
"mX c #B0B6D6",
"MX c None",
/* pixels */
"MXMXMXMXMXMXMXMXMXMXMXMXMXMXMXMXMXMXMXMXMXMXMXMXMXMXMXMXMXMXMXMXMXMXMXMXMXMXMXMXMXMXMXMXMXMXMXMXMXMX",
"MXMXMXMXMXMXMXMXMXMXMXMXMXMXMXMXMXMXMXMXh h h : : ; ; ; : 5 MXMXMXMXMXMXMXMXMXMXMXMXMXMXMXMXMXMXMXMX",
"MXMXMXMXMXMXMXMXMXMXMXMXMXMXMXMXMXMX& h =X=X%Xt.w.| ] [ w.t.e : MXMXMXMXMXMXMXMXMXMXMXMXMXMXMXMXMXMX",
"MXMXMXMXMXMXMXMXMXMXMXMXMXMXMXMXMXt w.yXzXzXlX+Xq.0.0.+X+X+X*.#X{ MXMXMXMXMXMXMXMXMXMXMXMXMXMXMXMXMX",
"MXMXMXMXMXMXMXMXMXMXMXMXMXMXMXMXr  .q.U.lXlXlXuX+XeXrXyX$XL.=.qXtX' MXMXMXMXMXMXMXMXMXMXMXMXMXMXMXMX",
"MXMXMXMXMXMXMXMXMXMXMXMXMXMXMXMXr J.U.Y.-X-X-X;X%XhX+XR.I.e.' P.%XU MXMXMXMXMXMXMXMXMXMXMXMXMXMXMXMX",
"MXMXMXMXMXMXMXMXMXMXMXMXMXMXMXr OXoX+XoXJ.J.J.$X$X*XXXq.&XwX;.7.U.P.r MXMXMXMXMXMXMXMXMXMXMXMXMXMXMX",
"MXMXMXMXMXMXMXMXMXMXMXMXMXMXf r jXwXoXq...0...J.@X+XhXhXhX,.+ & 8.L.5 + MX      MXMXMXMXMXMXMXMXMXMX",
"MXMXMXMXMXMXMXMXMXMXMXMXMXMXe f hXwXXXL...q.+X%XqX+XhXjXuXv n & } r.; + MX8 G 9   MXMXMXMXMXMXMXMXMX",
"MXMXMXMXMXMXMXMXMXMXMXo o o + & 9.{ ` Y y c >.9.>.` >.9.>.: <.> r c # + MXF b.R   MXMXMXMXMXMXMXMXMX",
"MXMXMXMX&       MXMXn O.j i O.m x d.8 # B.z.# 0X9 B . M.N.9 > + R 9 + MXMX< 4 <               MXMXMX",
"MXMXMXMX> +.g.- o X O.y.X.> k i g S.A % .XW.% E.G G . [.}.B.g / /.S & - > o B G j a.g.s.g.3.  , MXMX",
"MXMXMXMX- <XmXi i , O.y.X.i N n # 9 B ~ .X).^ 9 9 9 P  X}._.C.'..XS j N X., ^ B.2.vXnXbXmXdX  M MXMX",
"MXMXMX@.u <XmXi 3.s.M b , <.aXj.< k.m..X.X.X}.z.k.z.].{.D.A.|..X.XD g.9Xh.) ^ %.i.u.u.u.1X8XX h., MX",
"MXX.p.4Xd <XmXi 3.8Xu.<.<.h.9Xj.A .X.X.X.X.X.X{.Z.Z.Z.Z.A.`..X.X.XD s.9X3.z.k.o.fXg.a.s.2X8XX g., MX",
"MXa 3X6Xd <XmXi 3.9X9X9X9X9X9Xj.A .X.X.X.X.X.X|.X.X.o.5.`..X.X}.).Z g.1X:.k.T o.mXnXmXmXmXsXX g.i MX",
"MXs >X5Xd <XmXi 3.9X9X9X9X9X9Xj.9 (.(.(.(.(.(./.%.5.5.}..X.X.XG.T . s.#.Q ~   o.gX8X2X8XfXaXX g., MX",
"MXMXp :Xp <XmXi 3.9X9X9X9X9X9Xj.7 6.H M.l.I K.V .X.X.X.X}.F.v.F ~ 8 o.$.^ ) i o.sX4.3.3.,X8XX *.i MX",
"MXMXMXO * <XmXi O.j.j.j.j.j.j.y.Y T.q W.z.v kX# Q.Q.Q.Q.G.P 1 ^ k.l + _ c.1.*.o.nXbXbXbXbXdX  + MXMX",
"MXMXMXMX, h.xX,                 Y f.X     x iX        @ $ R N.b.B 4.z ^ x.4.<.o.vXxXxXxXcXsX  MXMXMX",
"MXMXMXMX&       MXMXMXMXMXMXMX% A   @ A MX    MXMXMX  T E n.].[.T 4 v.( 4.9X<.o.2X+.X.o.g.8X  MXMXMX",
"MXMXMXMXMXMXMXMXMXMXMXMXMXMXMXMX- & J F.w MXMXMXMXMXq 8 % B..XQ.~ b.K <.g.g.N o.mXmXnXnXnXsX  MXMXMX",
"MXMXMXMXMXMXMXMXMXMXMXMXMXMXMXMXMXMXMX4 N., MXMXo X Q.(.q B..XF v.P MX- * * X O.mXmXmXmXnXdX  MXMXMX",
"MXMXMXMXMXMXMXMXMXMXMXMXMXMXMXMXMXMXMXMXA F.1 % ].].% $ ^ v.< F.P MXMXMXMXMXMX                MXMXMX",
"MXMXMXMXMXMXMXMXMXMXMXMXMXMXMXMXMXMXMXMXMXw H.^..     m.x.A F.I # MXMXMXMXMXMXMXMXMXMXMXMXMXMXMXMXMX",
"MXMXMXMXMXMXMXMXMXMXMXMXMXMXMXMXMXMXMXMXMXMX7 4 MXMX  /.F v.B B.F MXMXMXMXMXMXMXMXMXMXMXMXMXMXMXMXMX",
"MXMXMXMXMXMXMXMXMXMXMXMXMXMXMXMXMXMXMX    MXMXMX      ).q $ ~ v.Z MXMXMXMXMXMXMXMXMXMXMXMXMXMXMXMXMX",
"MXMXMXMXMXMXMXMXMXMXMXMXMXMXMXMXMXMX. $ T o $ < ).).% b.v.v.m.b.B MXMXMXMXMXMXMXMXMXMXMXMXMXMXMXMXMX",
"MXMXMXMXMXMXMXMXMXMXMXMXMXMXMXMXMXMX% ~ T 2 N.B.J J . b.m.v./.).P MXMXMXMXMXMXMXMXMXMXMXMXMXMXMXMXMX",
"MXMXMXMXMXMXMXMXMXMXMXMXMXMXMXMXMXMX@ 4 < # A S MXMX  (.(.R A Q.T MXMXMXMXMXMXMXMXMXMXMXMXMXMXMXMXMX",
"MXMXMXMXMXMXMXMXMXMXMXMXMXMXMXMXMXMXMXMXMXMXMXMXMX    [.].S V.A @                   + MXMXMXMXMXMXMX",
"MXMXMXMXMXMXMXMXMXMXMXMXMXMXMXMXMXMXMXMXMXMXMX: w N.$ m.m.9 (.8 4 A N.z.A Z Z ! b.A Z = ; 6 MXMXMXMX",
"MXMXMXMXMXMXMXMXMXMXMXMXMXMXMXMXMXMXMXMXMX    b.c.Q @ B ^ 4 (.8 8 G (.M.P D P c.G.P S 8 S ^ , MXMXMX",
"MXMXMXMXMXMXMXMXMXMXMXMXMXMXMXMXMXMXMXMXZ N.N.D F MXMXMX4 @ A v.S Z (.B.G P P c.G.T G D v.W.9 + MXMX",
"MXMXMXMXMXMXMXMXMXMXMXMXMXMXMXMXMXMXMX3 b.Z B MXMXMXMXMXMXMX  G.T z.b.Q D P H c.G.T G G v.Q.D 9 @ MX",
"MXMXMXMXMXMXMXMXMXMXMXMXMXMXMXMXMXMXMX% B.+ + MXMXMXMXMXMXMX  G.T N.k.H P P k.B.k.P G D c.Q.G V @ MX",
"MXMXMXMXMXMXMXMXMXMXMXMXMXMXMXMXMXMXMX$ k.W ; MXMXMXMXMXMXMXMXx.^ x.R G G G B.Q.D G D R N.n.D 1 o MX",
"MXMXMXMXMXMXMXMXMXMXMXMXMXMXMXMXMXMXMXMXA W.% MXMXMXMXMXMXMXMX; b.S $ < 9 D B.Q.D G D ^ B.8 < MXMXMX",
"MXMXMXMXMXMXMXMXMXMXMXMXMXMXMXMXMXMXMXMXB ^ ^ MXMXMXMXMXMXMXMX; b.S X MX% 2 S T 4 4 4 B T # MXMXMXMX",
"MXMXMXMXMXMXMXMXMXMXMXMXMXMXMXMXMXMXMXMXMXq '.  MXMXMXMXMXMXMXz _ Q L MXMX: > : - - > , , MXMXMXMXMX",
"MXMXMXMXMXMXMXMXMXMXMXMXMXMXMXMXMXMXMXMXMX< z.  MXMXMXMXMXMXMXMX, N.Z + MXMXMXMXMXMXMXMXMXMXMXMXMXMX",
"MXMXMXMXMXMXMXMXMXMXMXMXMXMXMXMXMXMXMXMX7 Z A   MXMXMXMXMXMXMXMX, N.Z o MXMXMXMXMXMXMXMXMXMXMXMXMXMX",
"MXMXMXMXMXMXMXMXMXMXMXMXMXMXMXMXMXMXMXMX9 ^ ^ + MXMXMXMXMXMXMXMXh v.F 8 MXMXMXMXMXMXMXMXMXMXMXMXMXMX",
"MXMXMXMXMXMXMXMXMXMXMXMXMXMXMXMXMXMXMX@ D     MXMXMXMXMXMXMXMXMXMX  G.^   MXMXMXMXMXMXMXMXMXMXMXMXMX",
"MXMXMXMXMXMXMXMXMXMXMXMXMXMXMXMXMXMXMXo MXMXMXMXMXMXMXMXMXMXMXMXMX  G.^   MXMXMXMXMXMXMXMXMXMXMXMXMX",
"MXMXMXMXMXMXMXMXMXMXMXMXMXMXMXMXMXMXMXMXMXMXMXMXMXMXMXMXMXMXMXMXMX  v.P   MXMXMXMXMXMXMXMXMXMXMXMXMX",
"MXMXMXMXMXMXMXMXMXMXMXMXMXMXMXMXMXMXMXMXMXMXMXMXMXMXMXMXMXMXMXMX: . .     MXMXMXMXMXMXMXMXMXMXMXMXMX",
"MXMXMXMXMXMXMXMXMXMXMXMXMXMXMXMXMXMXMXMXMXMXMXMXMXMXMXMXMXMXMX: A ~ ! 9   MXMXMXMXMXMXMXMXMXMXMXMXMX",
"MXMXMXMXMXMXMXMXMXMXMXMXMXMXMXMXMXMXMXMXMXMXMXMXMXMXMXMXMXMXMX& # % % @ MXMXMXMXMXMXMXMXMXMXMXMXMXMX",
"MXMXMXMXMXMXMXMXMXMXMXMXMXMXMXMXMXMXMXMXMXMXMXMXMXMXMXMXMXMXMXMXMXMXMXMXMXMXMXMXMXMXMXMXMXMXMXMXMXMX"
};
