/* XPM */
static char *littleant[] = {
/* columns rows colors chars-per-pixel */
"50 50 53 1 ",
"  c #2D2D2D",
". c gray18",
"X c #2F2F2F",
"o c #35322D",
"O c gray19",
"+ c #313131",
"@ c #323232",
"# c #343434",
"$ c #353535",
"% c gray21",
"& c #373737",
"* c #3B3833",
"= c gray22",
"- c #393939",
"; c #3A3A3A",
": c gray23",
"> c #3C3C3C",
", c gray24",
"< c #3E3E3E",
"1 c #3F3F3F",
"2 c gray25",
"3 c #414141",
"4 c gray26",
"5 c #434343",
"6 c #444444",
"7 c gray27",
"8 c #464646",
"9 c gray28",
"0 c #484848",
"q c #494949",
"w c gray29",
"e c #4B4B4B",
"r c gray30",
"t c #4E4E4E",
"y c gray31",
"u c #505050",
"i c #515151",
"p c gray32",
"a c #535353",
"s c #555451",
"d c gray33",
"f c #555555",
"g c #565656",
"h c #585858",
"j c gray35",
"k c gray37",
"l c #5F5F5F",
"z c #776443",
"x c #966D2A",
"c c #89795A",
"v c #D89F3F",
"b c #BB995F",
"n c None",
/* pixels */
"nnnnnnnnnnnnnnnnnnnnnnnnnnnnnnnnnnnnnnnnnnnnnnnnnn",
"nnnnnnnnnnnnnnnnnnnnnnnnnnnnnnnnnnnnnnnnnnnnnnnnnn",
"nnnnnnnnnnnnnnnnnnnnnnnnnnnnnnnnnnnnnnnnnnnnnnnnnn",
"nnnnnnnnnnnnnnnnnnnnnnnnnnnnnnnnnnnnnnnnnnnnnnnnnn",
"nnnnnnnnnnnnnnnnnnnnnnnnnnnnnnnnnnnnnnnnnnnnnnnnnn",
"nnnnnnnnnnnnnnnnnnnnnnnnnnnnnnnnnnnnnnnnnnnnnnnnnn",
"nnnnnnnnnnnnnnnnnnnnnnnnnnnnnnnnnnnnnnnnnnnnnnnnnn",
"nnnnnnnnnnnnnnnnnnnnnnnnnnnnnnnnnnnnnnnnnnnnnnnnnn",
"nnnnnnnnnnnnnnnnnnnnnnnnnnnnnnnnnnnnnnnnnnnnnnnnnn",
"nnnnnnnnnnnnnnnnnnnnnnnnnnnnnnnnnnnnnnnnnnnnnnnnnn",
"nnnnnnnnnnnnnnnnnnnnnnnnnnnnnnnnnnnnnnnnnnnnnnnnnn",
"nnnnnnnnnnnnnnnnnnnnnnnnnnnnnnnnnnnnnnnnnnnnnnnnnn",
"nnnnnnnnnnnnnnnnnnnnnnnnnnnnnnnnnnnnnnnnnnnnnnnnnn",
"nnnnnnnnnnnnnnnnnnnnnnnnnnnnnnnnnnnnnnnnnnnnnnnnnn",
"nnnnnnnnnnnnnnnnnnnnnnnnlrlnnnnnnnnnnnnnnnnnnnnnnn",
"nnnnnnnnnnnnnnnnnnnnnnnnr#%nnnnnnnnnnnnnnnnnnnnnnn",
"nnnnnnnnnnnnnnnnnnnnnnnsr% nnnnnnnnnnnnnnnnnnnnnnn",
"nnnnnnnnnnnnnnnnnnnnnnncr%*bnnnn<nnnnnnnnnnnnnnnnn",
"nnnnnnnnnnnnnnnnnunnnnvzu%oxnnnnnnnnnnnnnnnnnnnnnn",
"nnnnnnnnnnnnnnnnnnnnnnnuu% #nnnn:nnnnnnnnnnnnnnnnn",
"nnnnnnnnnnnnnnnnnnnnnnnfr% nnnnn%nnnnnnnnnnnnnnnnn",
"nnnnnnnnnnnnnnnnnnunnnnnu%%nnnn:nnnnnnnnnnnnnnnnnn",
"nnnnnnnnnnnnnnnnnnnjnnnju% nnnnunnnnnnnnnnnnnnnnnn",
"nnnnnnnnnnnnnnnnnnnnnnnlr%#nnnnnnnnnnnnnnnnnnnnnnn",
"nnnnnnnnnnnnnnnnnnnnnnnnr%#nnnnnnnnnnnnnnnnnnnnnnn",
"nnnnnnnnnnnnnnnnnnrnnfqff# :%qnn:nnnnnnnnnnnnnnnnn",
"nnnnnnnnnnnnnnnnnunnnnnjr# nnnnn<nnnnnnnnnnnnnnnnn",
"nnnnnnnnnnnnnnnnffnnnnrf6#%<:nnnnnnnnnnnnnnnnnnnnn",
"nnnnnnnnnnnnnnnunnnnnqu6<# 2<2nnn:nnnnnnnnnnnnnnnn",
"nnnnnnnnnnnnnnnnnnnnfnu62#  nn<nnnrnnnnnnnnnnnnnnn",
"nnnnnnnnnnnnnnnnnnrfnn622#  #nn<%nnnnnnnnnnnnnnnnn",
"nnnnnnnnnnnnnnnnnnrnnn22<#   nnn:nnnnnnnnnnnnnnnnn",
"nnnnnnnnnnnnnnnnnnnnnnr22#  <nn#nnnnnnnnnnnnnnnnnn",
"nnnnnnnnnnnnnnnnnnnrnnu22%  nnn#nnnnnnnnnnnnnnnnnn",
"nnnnnnnnnnnnnnnnnnn6nnn62  %nnn:nnnnnnnnnnnnnnnnnn",
"nnnnnnnnnnnnnnnnnnn2nnnq2# nnnnnnnnnnnnnnnnnnnnnnn",
"nnnnnnnnnnnnnnnnnnnqnnnnq#<nnnnnnnnnnnnnnnnnnnnnnn",
"nnnnnnnnnnnnnnnnnnnrnnnnnnnnnnnnnnnnnnnnnnnnnnnnnn",
"nnnnnnnnnnnnnnnnnnnrnnnnnnnnnnn<nnnnnnnnnnnnnnnnnn",
"nnnnnnnnnnnnnnnnnnnnnnnnnnnnnnnnnnnnnnnnnnnnnnnnnn",
"nnnnnnnnnnnnnnnnnnnnnnnnnnnnnnnnnnnnnnnnnnnnnnnnnn",
"nnnnnnnnnnnnnnnnnnnnnnnnnnnnnnnnnnnnnnnnnnnnnnnnnn",
"nnnnnnnnnnnnnnnnnnnnnnnnnnnnnnnnnnnnnnnnnnnnnnnnnn",
"nnnnnnnnnnnnnnnnnnnnnnnnnnnnnnnnnnnnnnnnnnnnnnnnnn",
"nnnnnnnnnnnnnnnnnnnnnnnnnnnnnnnnnnnnnnnnnnnnnnnnnn",
"nnnnnnnnnnnnnnnnnnnnnnnnnnnnnnnnnnnnnnnnnnnnnnnnnn",
"nnnnnnnnnnnnnnnnnnnnnnnnnnnnnnnnnnnnnnnnnnnnnnnnnn",
"nnnnnnnnnnnnnnnnnnnnnnnnnnnnnnnnnnnnnnnnnnnnnnnnnn",
"nnnnnnnnnnnnnnnnnnnnnnnnnnnnnnnnnnnnnnnnnnnnnnnnnn",
"nnnnnnnnnnnnnnnnnnnnnnnnnnnnnnnnnnnnnnnnnnnnnnnnnn"
};
